name rise36.2859peak64.2979fall75.1499.mot
datacolumns 19
datarows 11
range 7.80164100000000 7.81830100000000
endheader
time	ground_force1_vx	ground_force1_vy	ground_force1_vz	ground_force1_px	ground_force1_py	ground_force1_pz	ground_force2_vx	ground_force2_vy	ground_force2_vz	ground_force2_px	ground_force2_py	ground_force2_pz	ground_torque1_x	ground_torque1_y	ground_torque1_z	ground_torque2_x	ground_torque2_y	ground_torque2_z	
7.80164100000000	-8.68303400000000	41.51778700000000	-9.31431300000000	0.37427400000000	0.00000000000000	0.08571500000000	-49.60006600000000	796.50427700000000	-54.35417100000000	0.17729900000000	0.00000000000000	-0.09489500000000	0.00000000000000	-7.01289200000000	0.00000000000000	0.00000000000000	-26.60063400000000	0.00000000000000	
7.80330200000000	-9.50579800000000	48.62891800000000	-10.45335700000000	0.37785200000000	0.00000000000000	0.08688600000000	-50.32361700000000	794.05125299999997	-53.96895000000000	0.17627700000000	0.00000000000000	-0.09478300000000	0.00000000000000	-7.92842300000000	0.00000000000000	0.00000000000000	-26.51719400000000	0.00000000000000	
7.80498100000000	-10.16116100000000	55.82439700000000	-11.48076200000000	0.38105500000000	0.00000000000000	0.08795000000000	-51.05834300000000	791.48273700000004	-53.56697900000000	0.17524600000000	0.00000000000000	-0.09467000000000	0.00000000000000	-8.77181100000000	0.00000000000000	0.00000000000000	-26.43301400000000	0.00000000000000	
7.80663800000000	-10.62606900000000	63.01237900000000	-12.37176900000000	0.38394700000000	0.00000000000000	0.08892300000000	-51.80350000000000	788.79646800000000	-53.14832600000000	0.17420500000000	0.00000000000000	-0.09455600000000	0.00000000000000	-9.52374900000000	0.00000000000000	0.00000000000000	-26.34806100000000	0.00000000000000	
7.80830300000000	-10.88728700000000	70.12413300000000	-13.11007900000000	0.38657600000000	0.00000000000000	0.08981800000000	-52.55826100000000	785.99010699999997	-52.71306900000000	0.17315500000000	0.00000000000000	-0.09444100000000	0.00000000000000	-10.17115400000000	0.00000000000000	0.00000000000000	-26.26229100000000	0.00000000000000	
7.80997800000000	-10.94121200000000	77.11613000000000	-13.68794400000000	0.38898400000000	0.00000000000000	0.09064500000000	-53.32171500000000	783.06124199999999	-52.26129900000000	0.17209700000000	0.00000000000000	-0.09432500000000	0.00000000000000	-10.70730300000000	0.00000000000000	0.00000000000000	-26.17564500000000	0.00000000000000	
7.81163600000000	-10.79293700000000	83.96970600000000	-14.10553900000000	0.39120300000000	0.00000000000000	0.09141200000000	-54.09286900000000	780.00739399999998	-51.79311700000000	0.17103200000000	0.00000000000000	-0.09420700000000	0.00000000000000	-11.13142900000000	0.00000000000000	0.00000000000000	-26.08804900000000	0.00000000000000	
7.81330800000000	-10.45475200000000	90.68873300000000	-14.36980400000000	0.39326000000000	0.00000000000000	0.09212800000000	-54.87064700000000	776.82602399999996	-51.30864100000000	0.16996100000000	0.00000000000000	-0.09408800000000	0.00000000000000	-11.44790000000000	0.00000000000000	0.00000000000000	-25.99941700000000	0.00000000000000	
7.81497800000000	-9.94431900000000	97.29582400000000	-14.49292300000000	0.39517900000000	0.00000000000000	0.09279600000000	-55.65389200000000	773.51454300000000	-50.80799800000000	0.16888400000000	0.00000000000000	-0.09396800000000	0.00000000000000	-11.66511100000000	0.00000000000000	0.00000000000000	-25.90964900000000	0.00000000000000	
7.81663600000000	-9.28272100000000	103.82765300000000	-14.49064000000000	0.39697800000000	0.00000000000000	0.09342400000000	-56.44136600000000	770.07031500000005	-50.29133300000000	0.16780200000000	0.00000000000000	-0.09384800000000	0.00000000000000	-11.79424100000000	0.00000000000000	0.00000000000000	-25.81862900000000	0.00000000000000	
7.81830100000000	-8.49256600000000	110.32992800000000	-14.38057700000000	0.39867300000000	0.00000000000000	0.09401400000000	-57.23175400000000	766.49067000000002	-49.75880400000000	0.16671500000000	0.00000000000000	-0.09372600000000	0.00000000000000	-11.84800000000000	0.00000000000000	0.00000000000000	-25.72622900000000	0.00000000000000	
